<mxfile host="app.diagrams.net" modified="2022-07-25T11:04:27.482Z" agent="5.0 (X11; Linux x86_64) AppleWebKit/537.36 (KHTML, like Gecko) Chrome/102.0.0.0 Safari/537.36" etag="1Bd3nGxPxq2tlBv139WG" version="20.2.0" type="github">
  <diagram id="C5RBs43oDa-KdzZeNtuy" name="Page-1">
    <mxGraphModel dx="2182" dy="805" grid="1" gridSize="10" guides="1" tooltips="1" connect="1" arrows="1" fold="1" page="1" pageScale="1" pageWidth="827" pageHeight="1169" math="0" shadow="0">
      <root>
        <mxCell id="WIyWlLk6GJQsqaUBKTNV-0" />
        <mxCell id="WIyWlLk6GJQsqaUBKTNV-1" parent="WIyWlLk6GJQsqaUBKTNV-0" />
        <mxCell id="5en3B6j00g3Lg-ZKNnO_-3" value="" style="edgeStyle=orthogonalEdgeStyle;rounded=0;orthogonalLoop=1;jettySize=auto;html=1;" edge="1" parent="WIyWlLk6GJQsqaUBKTNV-1" source="5en3B6j00g3Lg-ZKNnO_-0" target="5en3B6j00g3Lg-ZKNnO_-1">
          <mxGeometry relative="1" as="geometry" />
        </mxCell>
        <mxCell id="5en3B6j00g3Lg-ZKNnO_-0" value="图片输入" style="rounded=1;whiteSpace=wrap;html=1;" vertex="1" parent="WIyWlLk6GJQsqaUBKTNV-1">
          <mxGeometry x="170" y="80" width="110" height="40" as="geometry" />
        </mxCell>
        <mxCell id="5en3B6j00g3Lg-ZKNnO_-4" value="" style="edgeStyle=orthogonalEdgeStyle;rounded=0;orthogonalLoop=1;jettySize=auto;html=1;" edge="1" parent="WIyWlLk6GJQsqaUBKTNV-1" source="5en3B6j00g3Lg-ZKNnO_-1" target="5en3B6j00g3Lg-ZKNnO_-2">
          <mxGeometry relative="1" as="geometry" />
        </mxCell>
        <mxCell id="5en3B6j00g3Lg-ZKNnO_-1" value="狗和人检测模型" style="rounded=0;whiteSpace=wrap;html=1;" vertex="1" parent="WIyWlLk6GJQsqaUBKTNV-1">
          <mxGeometry x="132.5" y="160" width="185" height="50" as="geometry" />
        </mxCell>
        <mxCell id="5en3B6j00g3Lg-ZKNnO_-7" value="" style="edgeStyle=orthogonalEdgeStyle;rounded=0;orthogonalLoop=1;jettySize=auto;html=1;" edge="1" parent="WIyWlLk6GJQsqaUBKTNV-1" source="5en3B6j00g3Lg-ZKNnO_-2" target="5en3B6j00g3Lg-ZKNnO_-6">
          <mxGeometry relative="1" as="geometry" />
        </mxCell>
        <mxCell id="5en3B6j00g3Lg-ZKNnO_-13" value="" style="edgeStyle=orthogonalEdgeStyle;rounded=0;orthogonalLoop=1;jettySize=auto;html=1;" edge="1" parent="WIyWlLk6GJQsqaUBKTNV-1" source="5en3B6j00g3Lg-ZKNnO_-2" target="5en3B6j00g3Lg-ZKNnO_-9">
          <mxGeometry relative="1" as="geometry" />
        </mxCell>
        <mxCell id="5en3B6j00g3Lg-ZKNnO_-2" value="是否有狗" style="rhombus;whiteSpace=wrap;html=1;" vertex="1" parent="WIyWlLk6GJQsqaUBKTNV-1">
          <mxGeometry x="130" y="260" width="190" height="80" as="geometry" />
        </mxCell>
        <mxCell id="5en3B6j00g3Lg-ZKNnO_-6" value="状态正常" style="rounded=1;whiteSpace=wrap;html=1;" vertex="1" parent="WIyWlLk6GJQsqaUBKTNV-1">
          <mxGeometry x="-50" y="280" width="110" height="40" as="geometry" />
        </mxCell>
        <mxCell id="5en3B6j00g3Lg-ZKNnO_-8" value="否" style="text;html=1;align=center;verticalAlign=middle;resizable=0;points=[];autosize=1;strokeColor=none;fillColor=none;" vertex="1" parent="WIyWlLk6GJQsqaUBKTNV-1">
          <mxGeometry x="80" y="265" width="40" height="30" as="geometry" />
        </mxCell>
        <mxCell id="5en3B6j00g3Lg-ZKNnO_-11" value="" style="edgeStyle=orthogonalEdgeStyle;rounded=0;orthogonalLoop=1;jettySize=auto;html=1;" edge="1" parent="WIyWlLk6GJQsqaUBKTNV-1" source="5en3B6j00g3Lg-ZKNnO_-9" target="5en3B6j00g3Lg-ZKNnO_-10">
          <mxGeometry relative="1" as="geometry" />
        </mxCell>
        <mxCell id="5en3B6j00g3Lg-ZKNnO_-17" value="" style="edgeStyle=orthogonalEdgeStyle;rounded=0;orthogonalLoop=1;jettySize=auto;html=1;" edge="1" parent="WIyWlLk6GJQsqaUBKTNV-1" source="5en3B6j00g3Lg-ZKNnO_-9" target="5en3B6j00g3Lg-ZKNnO_-16">
          <mxGeometry relative="1" as="geometry" />
        </mxCell>
        <mxCell id="5en3B6j00g3Lg-ZKNnO_-9" value="是否有人" style="rhombus;whiteSpace=wrap;html=1;" vertex="1" parent="WIyWlLk6GJQsqaUBKTNV-1">
          <mxGeometry x="130" y="380" width="190" height="80" as="geometry" />
        </mxCell>
        <mxCell id="5en3B6j00g3Lg-ZKNnO_-10" value="狗未栓绳" style="rounded=1;whiteSpace=wrap;html=1;" vertex="1" parent="WIyWlLk6GJQsqaUBKTNV-1">
          <mxGeometry x="-50" y="400" width="110" height="40" as="geometry" />
        </mxCell>
        <mxCell id="5en3B6j00g3Lg-ZKNnO_-12" value="否" style="text;html=1;align=center;verticalAlign=middle;resizable=0;points=[];autosize=1;strokeColor=none;fillColor=none;" vertex="1" parent="WIyWlLk6GJQsqaUBKTNV-1">
          <mxGeometry x="80" y="395" width="40" height="30" as="geometry" />
        </mxCell>
        <mxCell id="5en3B6j00g3Lg-ZKNnO_-14" value="是" style="text;html=1;align=center;verticalAlign=middle;resizable=0;points=[];autosize=1;strokeColor=none;fillColor=none;" vertex="1" parent="WIyWlLk6GJQsqaUBKTNV-1">
          <mxGeometry x="180" y="350" width="40" height="30" as="geometry" />
        </mxCell>
        <mxCell id="5en3B6j00g3Lg-ZKNnO_-23" value="" style="edgeStyle=orthogonalEdgeStyle;rounded=0;orthogonalLoop=1;jettySize=auto;html=1;" edge="1" parent="WIyWlLk6GJQsqaUBKTNV-1" source="5en3B6j00g3Lg-ZKNnO_-16" target="5en3B6j00g3Lg-ZKNnO_-19">
          <mxGeometry relative="1" as="geometry" />
        </mxCell>
        <mxCell id="5en3B6j00g3Lg-ZKNnO_-16" value="狗和人距离估算" style="rounded=0;whiteSpace=wrap;html=1;" vertex="1" parent="WIyWlLk6GJQsqaUBKTNV-1">
          <mxGeometry x="132.5" y="503" width="185" height="50" as="geometry" />
        </mxCell>
        <mxCell id="5en3B6j00g3Lg-ZKNnO_-18" value="是" style="text;html=1;align=center;verticalAlign=middle;resizable=0;points=[];autosize=1;strokeColor=none;fillColor=none;" vertex="1" parent="WIyWlLk6GJQsqaUBKTNV-1">
          <mxGeometry x="180" y="465" width="40" height="30" as="geometry" />
        </mxCell>
        <mxCell id="5en3B6j00g3Lg-ZKNnO_-21" value="" style="edgeStyle=orthogonalEdgeStyle;rounded=0;orthogonalLoop=1;jettySize=auto;html=1;" edge="1" parent="WIyWlLk6GJQsqaUBKTNV-1" source="5en3B6j00g3Lg-ZKNnO_-19" target="5en3B6j00g3Lg-ZKNnO_-20">
          <mxGeometry relative="1" as="geometry" />
        </mxCell>
        <mxCell id="5en3B6j00g3Lg-ZKNnO_-25" style="edgeStyle=orthogonalEdgeStyle;rounded=0;orthogonalLoop=1;jettySize=auto;html=1;entryX=0;entryY=0.5;entryDx=0;entryDy=0;exitX=0.5;exitY=1;exitDx=0;exitDy=0;" edge="1" parent="WIyWlLk6GJQsqaUBKTNV-1" source="5en3B6j00g3Lg-ZKNnO_-19" target="5en3B6j00g3Lg-ZKNnO_-24">
          <mxGeometry relative="1" as="geometry">
            <Array as="points">
              <mxPoint x="225" y="710" />
              <mxPoint x="380" y="710" />
              <mxPoint x="380" y="185" />
            </Array>
          </mxGeometry>
        </mxCell>
        <mxCell id="5en3B6j00g3Lg-ZKNnO_-19" value="是否超过阈值T" style="rhombus;whiteSpace=wrap;html=1;" vertex="1" parent="WIyWlLk6GJQsqaUBKTNV-1">
          <mxGeometry x="130" y="603" width="190" height="80" as="geometry" />
        </mxCell>
        <mxCell id="5en3B6j00g3Lg-ZKNnO_-20" value="狗未栓绳" style="rounded=1;whiteSpace=wrap;html=1;" vertex="1" parent="WIyWlLk6GJQsqaUBKTNV-1">
          <mxGeometry x="-50" y="623" width="110" height="40" as="geometry" />
        </mxCell>
        <mxCell id="5en3B6j00g3Lg-ZKNnO_-22" value="是" style="text;html=1;align=center;verticalAlign=middle;resizable=0;points=[];autosize=1;strokeColor=none;fillColor=none;" vertex="1" parent="WIyWlLk6GJQsqaUBKTNV-1">
          <mxGeometry x="80" y="615" width="40" height="30" as="geometry" />
        </mxCell>
        <mxCell id="5en3B6j00g3Lg-ZKNnO_-28" value="" style="edgeStyle=orthogonalEdgeStyle;rounded=0;orthogonalLoop=1;jettySize=auto;html=1;" edge="1" parent="WIyWlLk6GJQsqaUBKTNV-1" source="5en3B6j00g3Lg-ZKNnO_-24" target="5en3B6j00g3Lg-ZKNnO_-27">
          <mxGeometry relative="1" as="geometry" />
        </mxCell>
        <mxCell id="5en3B6j00g3Lg-ZKNnO_-24" value="获取狗的ROI区域" style="rounded=0;whiteSpace=wrap;html=1;" vertex="1" parent="WIyWlLk6GJQsqaUBKTNV-1">
          <mxGeometry x="440" y="160" width="185" height="50" as="geometry" />
        </mxCell>
        <mxCell id="5en3B6j00g3Lg-ZKNnO_-26" value="否" style="text;html=1;align=center;verticalAlign=middle;resizable=0;points=[];autosize=1;strokeColor=none;fillColor=none;" vertex="1" parent="WIyWlLk6GJQsqaUBKTNV-1">
          <mxGeometry x="180" y="685" width="40" height="30" as="geometry" />
        </mxCell>
        <mxCell id="5en3B6j00g3Lg-ZKNnO_-31" value="" style="edgeStyle=orthogonalEdgeStyle;rounded=0;orthogonalLoop=1;jettySize=auto;html=1;" edge="1" parent="WIyWlLk6GJQsqaUBKTNV-1" source="5en3B6j00g3Lg-ZKNnO_-27" target="5en3B6j00g3Lg-ZKNnO_-30">
          <mxGeometry relative="1" as="geometry" />
        </mxCell>
        <mxCell id="5en3B6j00g3Lg-ZKNnO_-27" value="狗绳识别模型" style="rounded=0;whiteSpace=wrap;html=1;" vertex="1" parent="WIyWlLk6GJQsqaUBKTNV-1">
          <mxGeometry x="440" y="255" width="185" height="50" as="geometry" />
        </mxCell>
        <mxCell id="5en3B6j00g3Lg-ZKNnO_-29" value="狗未栓绳" style="rounded=1;whiteSpace=wrap;html=1;" vertex="1" parent="WIyWlLk6GJQsqaUBKTNV-1">
          <mxGeometry x="670" y="370" width="110" height="40" as="geometry" />
        </mxCell>
        <mxCell id="5en3B6j00g3Lg-ZKNnO_-32" value="" style="edgeStyle=orthogonalEdgeStyle;rounded=0;orthogonalLoop=1;jettySize=auto;html=1;" edge="1" parent="WIyWlLk6GJQsqaUBKTNV-1" source="5en3B6j00g3Lg-ZKNnO_-30" target="5en3B6j00g3Lg-ZKNnO_-29">
          <mxGeometry relative="1" as="geometry" />
        </mxCell>
        <mxCell id="5en3B6j00g3Lg-ZKNnO_-34" value="" style="edgeStyle=orthogonalEdgeStyle;rounded=0;orthogonalLoop=1;jettySize=auto;html=1;" edge="1" parent="WIyWlLk6GJQsqaUBKTNV-1" source="5en3B6j00g3Lg-ZKNnO_-30" target="5en3B6j00g3Lg-ZKNnO_-33">
          <mxGeometry relative="1" as="geometry" />
        </mxCell>
        <mxCell id="5en3B6j00g3Lg-ZKNnO_-30" value="狗绳状态" style="rhombus;whiteSpace=wrap;html=1;" vertex="1" parent="WIyWlLk6GJQsqaUBKTNV-1">
          <mxGeometry x="437.5" y="350" width="190" height="80" as="geometry" />
        </mxCell>
        <mxCell id="5en3B6j00g3Lg-ZKNnO_-33" value="狗已栓绳" style="rounded=1;whiteSpace=wrap;html=1;" vertex="1" parent="WIyWlLk6GJQsqaUBKTNV-1">
          <mxGeometry x="477.5" y="470" width="110" height="40" as="geometry" />
        </mxCell>
        <mxCell id="5en3B6j00g3Lg-ZKNnO_-35" value="第一版牵狗未栓绳识别" style="text;html=1;align=center;verticalAlign=middle;resizable=0;points=[];autosize=1;strokeColor=none;fillColor=none;fontSize=20;" vertex="1" parent="WIyWlLk6GJQsqaUBKTNV-1">
          <mxGeometry x="216" y="14" width="220" height="40" as="geometry" />
        </mxCell>
      </root>
    </mxGraphModel>
  </diagram>
</mxfile>
